<?xml version="1.0" encoding="utf-8"?>
<!-- Generator: Adobe Illustrator 16.0.0, SVG Export Plug-In . SVG Version: 6.00 Build 0)  -->
<!DOCTYPE svg PUBLIC "-//W3C//DTD SVG 1.1//EN" "http://www.w3.org/Graphics/SVG/1.1/DTD/svg11.dtd">
<svg version="1.1" id="US_UK_Download_on_the" xmlns="http://www.w3.org/2000/svg" xmlns:xlink="http://www.w3.org/1999/xlink"
	 x="0px" y="0px" width="632.5px" height="150px" viewBox="0 0 632.5 150" enable-background="new 0 0 632.5 150"
	 xml:space="preserve">
<path fill="#A6A6A6" d="M590.24,542.334H21.307C9.52,542.334,0,532.813,0,521.028V382.307C0,370.522,9.52,361,21.307,361H590.24
	c11.786,0,21.76,9.52,21.76,21.305v138.269C612,532.813,602.026,542.334,590.24,542.334L590.24,542.334z"/>
<path d="M607.693,521.028c0,9.52-7.707,17.227-17.229,17.227H21.533c-9.52,0-17.227-7.707-17.227-17.227V382.307
	c0-9.52,7.707-17.227,17.227-17.227h568.934c9.521,0,17.229,7.707,17.229,17.227L607.693,521.028L607.693,521.028z"/>
<g id="Shape_5">
	<g>
		<path fill="#FFFFFF" d="M183.518,400.079h5.723c0.751,2.531,1.126,4.063,1.126,4.609h3.962c0-0.439-0.874-3.113-2.615-8.005
			c-1.748-4.893-2.623-7.571-2.623-8.041h-4.68c0,0.5-0.965,3.22-2.894,8.158c-1.924,4.935-2.889,7.568-2.889,7.885h3.723
			C182.353,404.106,182.741,402.571,183.518,400.079z M186.295,390.846h0.194c0,0.351,0.706,2.644,2.117,6.875H184.1
			C185.564,393.461,186.295,391.17,186.295,390.846z M200.06,404.688c-0.116-2.911-0.174-5.387-0.174-7.42
			c0-1.448-0.104-3.082-0.311-4.881h0.201c0.33,1.25,1.683,3.572,4.059,6.967c2.273,3.224,3.406,4.998,3.406,5.334h3.063
			c-0.117-2.506-0.175-5.303-0.175-8.391c0-3.068,0.059-5.619,0.175-7.652h-3.102c0.117,2.339,0.175,4.623,0.175,6.851
			c0,1.457,0.097,3.096,0.298,4.928h-0.188c-0.317-1.145-1.567-3.334-3.735-6.563c-2.04-3.043-3.063-4.779-3.063-5.213h-3.677
			c0.123,2.098,0.188,4.646,0.188,7.649c0,3.051-0.065,5.851-0.188,8.394h3.048V404.688L200.06,404.688z M219.677,404.836
			c2.713,0,4.817-0.873,6.319-2.609c1.502-1.745,2.253-3.778,2.253-6.116c0-2.072-0.667-3.847-2.014-5.322
			c-1.34-1.482-3.502-2.221-6.48-2.221c-0.214,0-0.673,0.014-1.373,0.039c-0.706,0.026-1.237,0.038-1.587,0.038h-2.169
			c0.11,2.109,0.162,4.66,0.162,7.652c0,3.115-0.052,5.91-0.162,8.391C216.771,404.792,218.46,404.836,219.677,404.836z
			 M219.243,391.034c1.904,0,3.315,0.539,4.241,1.619c0.926,1.082,1.385,2.414,1.385,3.985c0,1.58-0.427,2.914-1.282,4.017
			c-0.854,1.094-2.169,1.645-3.943,1.645c-0.538,0-1.075-0.059-1.612-0.162c-0.084-1.93-0.123-3.879-0.123-5.84
			c0-1.793-0.039-3.51-0.123-5.152C218.402,391.067,218.894,391.034,219.243,391.034z M241.133,404.688h3.671
			c-1.068-2.836-1.916-4.782-2.544-5.846c-0.628-1.067-1.354-1.717-2.188-1.94v-0.189c2.163-0.803,3.244-2.227,3.244-4.271
			c0-2.584-1.896-3.873-5.685-3.873c-0.667,0-1.398,0.014-2.188,0.039c-0.79,0.026-1.302,0.039-1.554,0.039h-2.143
			c0.11,2.108,0.162,4.659,0.162,7.651c0,3.115-0.052,5.91-0.162,8.392h3.444c-0.071-2.148-0.11-4.285-0.11-6.396
			c0.44-0.006,0.894-0.012,1.373-0.012c1.139,0,1.968,0.342,2.479,1.021C239.443,399.989,240.175,401.782,241.133,404.688z
			 M236.219,396.077c-0.317,0-0.699-0.012-1.152-0.025c0-2.045-0.045-3.709-0.136-4.983c0.596-0.111,1.282-0.168,2.052-0.168
			c2.117,0,3.172,0.813,3.172,2.452C240.155,395.165,238.848,396.077,236.219,396.077z M254.464,405.135
			c2.292,0,4.208-0.836,5.762-2.492c1.554-1.657,2.331-3.748,2.331-6.274c0-2.355-0.738-4.291-2.208-5.818
			c-1.47-1.516-3.295-2.278-5.471-2.278c-2.292,0-4.208,0.827-5.762,2.491c-1.554,1.656-2.331,3.75-2.331,6.273
			c0,2.35,0.738,4.287,2.208,5.813C250.463,404.372,252.289,405.135,254.464,405.135z M251.473,392.563
			c0.842-1.075,1.865-1.612,3.069-1.612c1.295,0,2.382,0.531,3.27,1.6c0.88,1.068,1.328,2.461,1.328,4.176
			c0,1.64-0.427,2.992-1.27,4.078c-0.841,1.076-1.864,1.619-3.069,1.619c-1.289,0-2.375-0.537-3.263-1.604
			c-0.887-1.074-1.333-2.47-1.333-4.179C250.204,394.997,250.631,393.637,251.473,392.563z M269.556,404.688
			c-0.11-2.497-0.162-5.295-0.162-8.391c0-3.037,0.052-5.588,0.162-7.652h-3.502c0.103,2.099,0.155,4.648,0.155,7.652
			c0,3.049-0.052,5.848-0.155,8.391H269.556z M278.937,404.836c2.706,0,4.81-0.873,6.319-2.609c1.502-1.745,2.252-3.778,2.252-6.116
			c0-2.072-0.673-3.847-2.013-5.322c-1.34-1.482-3.503-2.221-6.487-2.221c-0.214,0-0.667,0.014-1.373,0.039
			c-0.699,0.026-1.23,0.038-1.586,0.038h-2.163c0.104,2.109,0.155,4.66,0.155,7.652c0,3.115-0.052,5.91-0.155,8.391
			C276.03,404.792,277.713,404.836,278.937,404.836z M278.503,391.034c1.897,0,3.309,0.539,4.234,1.619
			c0.926,1.082,1.386,2.414,1.386,3.985c0,1.58-0.428,2.914-1.275,4.017c-0.861,1.094-2.176,1.645-3.95,1.645
			c-0.537,0-1.075-0.059-1.605-0.162c-0.084-1.93-0.129-3.879-0.129-5.84c0-1.793-0.039-3.51-0.123-5.152
			C277.662,391.067,278.147,391.034,278.503,391.034z M300.509,400.079h5.717c0.758,2.531,1.133,4.063,1.133,4.609h3.963
			c0-0.439-0.874-3.113-2.622-8.005c-1.747-4.893-2.622-7.571-2.622-8.041h-4.682c0,0.5-0.964,3.22-2.887,8.158
			c-1.929,4.935-2.894,7.568-2.894,7.885h3.728C299.343,404.106,299.731,402.571,300.509,400.079z M303.28,390.846h0.2
			c0,0.351,0.706,2.644,2.117,6.875h-4.505C302.556,393.461,303.28,391.17,303.28,390.846z M325.766,392.84
			c0-1.438-0.537-2.506-1.625-3.211c-1.082-0.707-2.399-1.063-3.976-1.063c-0.636,0-1.386,0.014-2.253,0.039
			c-0.867,0.024-1.45,0.036-1.754,0.036h-2.156c0.104,2.146,0.162,4.695,0.162,7.652c0,3.219-0.059,6.021-0.162,8.394h3.477
			c-0.092-2.531-0.136-4.57-0.136-6.111c0.169,0.014,0.439,0.022,0.828,0.022c2.138,0,3.931-0.471,5.394-1.401
			C325.035,396.258,325.766,394.809,325.766,392.84z M318.048,396.368c-0.271,0-0.511-0.006-0.718-0.025
			c0-1.961-0.047-3.723-0.137-5.274c0.654-0.117,1.273-0.183,1.855-0.183c2.346,0,3.523,0.879,3.523,2.636
			C322.574,395.417,321.064,396.368,318.048,396.368z M332.338,404.688c-0.092-2.53-0.145-4.569-0.145-6.108
			c0.168,0.012,0.447,0.022,0.836,0.022c2.131,0,3.924-0.473,5.394-1.403c1.464-0.938,2.195-2.39,2.195-4.357
			c0-1.436-0.538-2.506-1.62-3.211c-1.08-0.705-2.407-1.063-3.975-1.063c-0.643,0-1.394,0.014-2.26,0.039
			c-0.867,0.026-1.449,0.038-1.756,0.038h-2.154c0.104,2.144,0.162,4.693,0.162,7.652c0,3.219-0.061,6.021-0.162,8.392
			L332.338,404.688L332.338,404.688z M333.904,390.885c2.35,0,3.521,0.879,3.521,2.635c0,1.896-1.509,2.849-4.519,2.849
			c-0.279,0-0.518-0.004-0.727-0.023c0-1.963-0.039-3.725-0.13-5.274C332.699,390.95,333.32,390.885,333.904,390.885z
			 M357.225,388.268c-2.285,0-4.209,0.83-5.754,2.494c-1.555,1.656-2.332,3.748-2.332,6.273c0,2.35,0.737,4.285,2.207,5.813
			c1.463,1.521,3.289,2.285,5.471,2.285c2.287,0,4.209-0.836,5.758-2.492c1.554-1.655,2.33-3.746,2.33-6.272
			c0-2.355-0.737-4.291-2.2-5.82C361.232,389.034,359.406,388.268,357.225,388.268z M360.223,400.803
			c-0.842,1.076-1.865,1.619-3.07,1.619c-1.286,0-2.373-0.537-3.262-1.604c-0.887-1.074-1.334-2.468-1.334-4.177
			c0-1.645,0.422-3.004,1.264-4.078c0.843-1.075,1.863-1.612,3.068-1.612c1.301,0,2.389,0.531,3.274,1.6
			c0.882,1.068,1.321,2.461,1.321,4.176C361.484,398.362,361.063,399.715,360.223,400.803z M378.596,388.645
			c0.11,2.339,0.176,4.623,0.176,6.851c0,1.457,0.1,3.096,0.291,4.928h-0.182c-0.324-1.145-1.572-3.334-3.742-6.563
			c-2.039-3.043-3.062-4.779-3.062-5.213h-3.679c0.129,2.098,0.188,4.646,0.188,7.649c0,3.051-0.059,5.851-0.188,8.394h3.051
			c-0.118-2.912-0.176-5.388-0.176-7.421c0-1.448-0.104-3.084-0.313-4.883h0.202c0.33,1.25,1.684,3.574,4.061,6.97
			c2.271,3.223,3.404,4.995,3.404,5.334h3.063c-0.117-2.507-0.176-5.306-0.176-8.394c0-3.065,0.059-5.619,0.176-7.649h-3.096v-0.003
			H378.596z M207.421,451.801v6.853h20.809c-0.427,4.938-2.026,8.784-4.804,11.549c-4.266,4.248-9.601,6.371-16.005,6.371
			c-6.034,0-11.245-2.109-15.642-6.332c-4.403-4.222-6.604-9.703-6.604-16.449c0-6.742,2.201-12.225,6.604-16.445
			c4.396-4.223,9.608-6.334,15.642-6.334c6.669,0,11.9,2.263,15.688,6.773l5.044-5.021c-2.24-2.651-5.231-4.782-8.967-6.368
			c-3.736-1.601-7.66-2.39-11.765-2.39c-8.274,0-15.298,2.849-21.086,8.56c-5.794,5.711-8.683,12.786-8.683,21.225
			c0,8.441,2.888,15.523,8.683,21.229c5.788,5.709,12.813,8.563,21.086,8.563c8.644,0,15.655-2.816,21.048-8.449
			c4.746-4.719,7.122-11.067,7.122-19.033c0-1.381-0.135-2.811-0.401-4.301L207.421,451.801L207.421,451.801z M258.802,442.006
			c-5.873,0-10.695,1.98-14.49,5.933c-3.781,3.961-5.678,8.907-5.678,14.856c0,5.951,1.897,10.896,5.678,14.853
			c3.794,3.954,8.617,5.938,14.49,5.938c5.866,0,10.696-1.979,14.483-5.938c3.787-3.955,5.685-8.9,5.685-14.853
			c0-5.949-1.897-10.896-5.685-14.856C269.498,443.987,264.667,442.006,258.802,442.006z M267.808,473.024
			c-2.538,2.575-5.542,3.864-9.006,3.864c-3.471,0-6.475-1.289-9.006-3.864c-2.532-2.57-3.8-5.982-3.8-10.23s1.269-7.658,3.8-10.236
			c2.531-2.573,5.535-3.862,9.006-3.862c3.463,0,6.468,1.289,9.006,3.862c2.531,2.578,3.801,5.988,3.801,10.236
			C271.608,467.042,270.339,470.454,267.808,473.024z M301.616,442.006c-5.872,0-10.696,1.98-14.483,5.933
			c-3.787,3.961-5.685,8.907-5.685,14.856c0,5.951,1.897,10.896,5.685,14.853c3.787,3.954,8.611,5.938,14.483,5.938
			c5.872,0,10.696-1.979,14.481-5.938c3.795-3.955,5.687-8.9,5.687-14.853c0-5.949-1.892-10.896-5.687-14.856
			C312.313,443.987,307.489,442.006,301.616,442.006z M310.622,473.024c-2.538,2.575-5.535,3.864-9.006,3.864
			c-3.47,0-6.467-1.289-9.005-3.864c-2.532-2.57-3.8-5.982-3.8-10.23s1.269-7.658,3.8-10.236c2.538-2.573,5.536-3.862,9.005-3.862
			c3.471,0,6.468,1.289,9.006,3.862c2.53,2.578,3.801,5.988,3.801,10.236S313.152,470.454,310.622,473.024z M356.598,448.694h-0.318
			c-1.28-1.91-3.094-3.502-5.443-4.777c-2.344-1.275-4.99-1.91-7.918-1.91c-5.068,0-9.445,1.994-13.129,5.969
			c-3.68,3.988-5.521,8.925-5.521,14.82c0,5.891,1.846,10.832,5.521,14.813c3.684,3.979,8.061,5.977,13.129,5.977
			c2.928,0,5.574-0.641,7.918-1.916c2.352-1.27,4.163-2.869,5.443-4.777h0.318v3.742c0,4.144-1.16,7.418-3.479,9.84
			c-2.324,2.414-5.51,3.619-9.563,3.619c-2.563,0-4.852-0.713-6.845-2.147c-2-1.433-3.38-3.211-4.125-5.336l-6.72,2.791
			c1.273,2.967,3.386,5.612,6.318,7.924c2.934,2.305,6.722,3.459,11.369,3.459c5.6,0,10.346-1.736,14.241-5.213
			c3.892-3.478,5.841-8.564,5.841-15.254v-37.039h-7.043v5.418h0.004V448.694z M352.958,473.071
			c-2.429,2.545-5.381,3.817-8.844,3.817c-3.419,0-6.353-1.289-8.806-3.864c-2.455-2.57-3.678-5.982-3.678-10.23
			s1.223-7.658,3.678-10.236c2.453-2.573,5.387-3.862,8.806-3.862c3.463,0,6.415,1.272,8.844,3.823
			c2.427,2.554,3.64,5.974,3.64,10.275C356.598,467.094,355.385,470.52,352.958,473.071z M370.602,482.309h7.36v-57.03h-7.36
			V482.309z M401.489,442.006c-5.601,0-10.203,2.045-13.804,6.131c-3.605,4.093-5.406,8.976-5.406,14.658
			c0,5.994,1.859,10.961,5.568,14.894c3.702,3.93,8.521,5.896,14.443,5.896c4.266,0,7.866-1.023,10.805-3.068
			c2.929-2.047,5.038-4.584,6.319-7.606l-6.558-2.707c-1.873,4.463-5.445,6.688-10.729,6.688c-3.257,0-6.092-1.141-8.521-3.426
			c-2.426-2.276-3.748-5.387-3.961-9.315h30.973l0.078-1.354c0-6.318-1.747-11.363-5.243-15.131
			C411.959,443.891,407.31,442.006,401.489,442.006z M390.127,458.094c0.751-2.867,2.124-5.146,4.125-6.85
			c2-1.703,4.356-2.551,7.076-2.551c3.734,0,6.551,1.012,8.449,3.028c1.891,2.017,2.919,4.14,3.082,6.371L390.127,458.094
			L390.127,458.094z M474.436,430.094c-3.549-3.205-7.741-4.815-12.599-4.815h-19.533v57.03h7.368v-23.1h12.165
			c4.855,0,9.05-1.605,12.599-4.816c3.551-3.213,5.321-7.266,5.321-12.153C479.757,437.358,477.984,433.311,474.436,430.094z
			 M469.438,449.096c-1.869,2.064-4.351,3.107-7.443,3.107h-12.32v-19.916h12.32c3.095,0,5.574,1.035,7.443,3.109
			c1.865,2.069,2.806,4.354,2.806,6.842C472.241,444.739,471.303,447.024,469.438,449.096z M484.563,482.309h7.36v-57.03h-7.36
			V482.309z M526.179,446.383c-3.313-2.914-7.472-4.377-12.486-4.377c-4.377,0-7.899,0.998-10.562,2.984
			c-2.674,1.994-4.461,4.153-5.368,6.494l6.729,2.86c0.641-1.75,1.825-3.127,3.561-4.139c1.729-1.004,3.664-1.516,5.801-1.516
			c2.883,0,5.311,0.86,7.283,2.59c1.978,1.729,2.958,4.021,2.958,6.891v1.119c-2.77-1.601-6.315-2.396-10.643-2.396
			c-4.855,0-8.938,1.211-12.243,3.625c-3.308,2.414-4.965,5.748-4.965,9.996c0,3.931,1.404,7.09,4.208,9.479
			c2.796,2.389,6.279,3.586,10.439,3.586c5.653,0,9.952-2.232,12.887-6.693h0.314v5.418h7.046v-23.569
			C531.139,453.426,529.48,449.309,526.179,446.383z M520.377,473.504c-2.485,2.26-5.243,3.387-8.286,3.387
			c-2.137,0-4.025-0.559-5.679-1.672c-1.657-1.11-2.486-2.627-2.486-4.537c0-2.08,0.907-3.879,2.729-5.42
			c1.813-1.541,4.506-2.305,8.08-2.305c4.16,0,7.281,0.84,9.358,2.543C524.093,468.584,522.857,471.25,520.377,473.504z
			 M563.71,443.276l-11.362,28.041h-0.154L540.5,443.276h-8.002l16.174,36.561l-9.13,19.676h7.607l24.563-56.235L563.71,443.276
			L563.71,443.276z M105.166,453.834c-8.021-8.047-16.011-16.141-24.007-24.221c-12.34-12.478-24.687-24.951-37-37.459
			c-0.757-0.771-1.205-0.599-1.819,0.063c-1.593,1.687-2.033,3.73-2.026,5.963c0.013,18.213,0.006,36.433,0.006,54.646
			c-0.013,0-0.02,0-0.032,0c0,7.627,0,15.254,0.006,22.881c0,10.793,0.026,21.578,0.02,32.365c0,2.563,0.803,4.713,2.894,6.313
			c1.152,0.881,1.988,1.004,3.185-0.188c19.559-19.488,39.17-38.931,58.8-58.354C106.014,455.026,105.942,454.612,105.166,453.834z
			 M107.878,451.594c0.803,0.816,1.172,0.476,1.768-0.129c5.561-5.535,11.123-11.07,16.729-16.561
			c0.887-0.867,0.913-1.228-0.239-1.871c-25.082-13.947-50.145-27.933-75.213-41.91c-1.016-0.568-2.072-1.002-3.567-0.99
			c0.336,0.422,0.473,0.621,0.641,0.791C67.964,411.143,87.938,431.35,107.878,451.594z M110.177,458.86
			c-1.011-1.054-1.529-1.199-2.662-0.062c-18.147,18.342-36.354,36.631-54.553,54.938c0.201-0.131,0.557-0.476,0.945-0.685
			c23.34-12.754,46.68-25.514,70.033-38.235c1.127-0.613,1.055-0.949,0.227-1.773C119.467,468.35,114.786,463.637,110.177,458.86z
			 M152.965,448.014c-6.998-3.901-14.003-7.78-20.983-11.719c-0.861-0.484-1.354-0.406-2.046,0.285
			c-5.873,5.873-11.771,11.719-17.695,17.533c-0.764,0.744-0.744,1.145,0,1.891c5.089,5.082,10.146,10.195,15.163,15.355
			c0.79,0.811,1.353,0.83,2.305,0.307c7.044-3.912,14.126-7.764,21.19-11.648c1.191-0.651,2.389-1.309,3.483-2.108
			c1.47-1.082,2.441-2.525,2.519-4.578C156.812,450.78,155.128,449.219,152.965,448.014z"/>
	</g>
</g>
<g>
	<rect x="2.806" y="2.5" width="626.888" height="145"/>
	<path fill="#FFFFFF" d="M628.194,4v142H4.306V4H628.194 M631.194,1h-3H4.306h-3v3v142v3h3h623.888h3v-3V4V1L631.194,1z"/>
</g>
<path fill="#FFFFFF" d="M124.204,75.9c-5.856-5.874-11.689-11.782-17.526-17.683c-9.01-9.108-18.023-18.216-27.013-27.348
	c-0.553-0.563-0.88-0.436-1.328,0.046c-1.163,1.23-1.484,2.724-1.479,4.354c0.009,13.297,0.004,26.598,0.004,39.894
	c-0.009,0-0.014,0-0.023,0c0,5.568,0,11.137,0.004,16.706c0,7.879,0.019,15.754,0.015,23.629c0,1.871,0.586,3.438,2.113,4.606
	c0.841,0.644,1.451,0.732,2.325-0.137c14.279-14.227,28.597-28.422,42.928-42.602C124.822,76.771,124.77,76.469,124.204,75.9z"/>
<path fill="#FFFFFF" d="M126.184,74.267c0.586,0.596,0.855,0.346,1.291-0.095c4.06-4.041,8.121-8.082,12.213-12.09
	c0.647-0.634,0.667-0.896-0.174-1.366c-18.312-10.183-36.61-20.392-54.911-30.598c-0.742-0.415-1.513-0.731-2.604-0.723
	c0.245,0.308,0.345,0.453,0.468,0.577C97.043,44.734,111.626,59.486,126.184,74.267z"/>
<path fill="#FFFFFF" d="M127.862,79.57c-0.738-0.77-1.116-0.875-1.943-0.045c-13.249,13.391-26.541,26.744-39.828,40.109
	c0.146-0.096,0.407-0.348,0.69-0.5c17.04-9.311,34.079-18.627,51.128-27.914c0.822-0.449,0.771-0.693,0.166-1.295
	C134.644,86.499,131.227,83.059,127.862,79.57z"/>
<path fill="#FFFFFF" d="M159.1,71.652c-5.109-2.849-10.223-5.681-15.319-8.556c-0.629-0.354-0.989-0.296-1.494,0.208
	c-4.288,4.288-8.593,8.556-12.918,12.801c-0.559,0.543-0.543,0.836,0,1.381c3.715,3.709,7.407,7.441,11.07,11.209
	c0.576,0.593,0.987,0.606,1.683,0.225c5.143-2.855,10.313-5.668,15.47-8.504c0.87-0.477,1.745-0.955,2.543-1.54
	c1.073-0.79,1.782-1.844,1.839-3.342C161.909,73.672,160.679,72.532,159.1,71.652z"/>
<rect y="633.167" width="632.5" height="150"/>
<path fill="#FFFFFF" d="M124.204,709.068c-5.856-5.874-11.689-11.783-17.526-17.684c-9.01-9.107-18.023-18.216-27.013-27.348
	c-0.553-0.563-0.88-0.437-1.328,0.046c-1.163,1.229-1.484,2.724-1.479,4.354c0.009,13.297,0.004,26.598,0.004,39.894
	c-0.009,0-0.014,0-0.023,0c0,5.568,0,11.137,0.004,16.705c0,7.88,0.019,15.754,0.015,23.629c0,1.871,0.586,3.44,2.113,4.608
	c0.841,0.643,1.451,0.731,2.325-0.138c14.279-14.228,28.597-28.422,42.928-42.603C124.822,709.938,124.77,709.635,124.204,709.068z"
	/>
<path fill="#FFFFFF" d="M126.184,707.433c0.586,0.597,0.855,0.347,1.291-0.095c4.06-4.041,8.121-8.082,12.213-12.09
	c0.647-0.634,0.667-0.896-0.174-1.366c-18.312-10.183-36.61-20.392-54.911-30.598c-0.742-0.415-1.513-0.731-2.604-0.724
	c0.245,0.309,0.345,0.453,0.468,0.577C97.043,677.901,111.626,692.653,126.184,707.433z"/>
<path fill="#FFFFFF" d="M127.862,712.737c-0.738-0.77-1.116-0.875-1.943-0.044c-13.249,13.391-26.541,26.742-39.828,40.107
	c0.146-0.096,0.407-0.347,0.69-0.499c17.04-9.312,34.079-18.627,51.128-27.915c0.822-0.447,0.771-0.692,0.166-1.295
	C134.644,719.666,131.227,716.225,127.862,712.737z"/>
<path fill="#FFFFFF" d="M159.1,704.819c-5.109-2.85-10.223-5.682-15.319-8.557c-0.629-0.354-0.989-0.296-1.494,0.208
	c-4.288,4.288-8.593,8.557-12.918,12.801c-0.559,0.544-0.543,0.837,0,1.382c3.715,3.71,7.407,7.441,11.07,11.21
	c0.576,0.592,0.987,0.605,1.683,0.224c5.143-2.854,10.313-5.668,15.47-8.504c0.87-0.478,1.745-0.955,2.543-1.54
	c1.073-0.79,1.782-1.844,1.839-3.342C161.909,706.838,160.679,705.699,159.1,704.819z"/>
<text transform="matrix(1 0 0 1 183.4961 729.2344)" fill="#FFFFFF" font-family="'RVHarmonia-SemiBold'" font-size="57.8995">GOOGLE PLAY</text>
<rect y="633.167" width="632.5" height="150"/>
<path fill="#FFFFFF" d="M124.204,709.068c-5.856-5.874-11.689-11.783-17.526-17.684c-9.01-9.107-18.023-18.216-27.013-27.348
	c-0.553-0.563-0.88-0.437-1.328,0.046c-1.163,1.229-1.484,2.724-1.479,4.354c0.009,13.297,0.004,26.598,0.004,39.894
	c-0.009,0-0.014,0-0.023,0c0,5.568,0,11.137,0.004,16.705c0,7.88,0.019,15.754,0.015,23.629c0,1.871,0.586,3.44,2.113,4.608
	c0.841,0.643,1.451,0.731,2.325-0.138c14.279-14.228,28.597-28.422,42.928-42.603C124.822,709.938,124.77,709.635,124.204,709.068z"
	/>
<path fill="#FFFFFF" d="M126.184,707.433c0.586,0.597,0.855,0.347,1.291-0.095c4.06-4.041,8.121-8.082,12.213-12.09
	c0.647-0.634,0.667-0.896-0.174-1.366c-18.312-10.183-36.61-20.392-54.911-30.598c-0.742-0.415-1.513-0.731-2.604-0.724
	c0.245,0.309,0.345,0.453,0.468,0.577C97.043,677.901,111.626,692.653,126.184,707.433z"/>
<path fill="#FFFFFF" d="M127.862,712.737c-0.738-0.77-1.116-0.875-1.943-0.044c-13.249,13.391-26.541,26.742-39.828,40.107
	c0.146-0.096,0.407-0.347,0.69-0.499c17.04-9.312,34.079-18.627,51.128-27.915c0.822-0.447,0.771-0.692,0.166-1.295
	C134.644,719.666,131.227,716.225,127.862,712.737z"/>
<path fill="#FFFFFF" d="M159.1,704.819c-5.109-2.85-10.223-5.682-15.319-8.557c-0.629-0.354-0.989-0.296-1.494,0.208
	c-4.288,4.288-8.593,8.557-12.918,12.801c-0.559,0.544-0.543,0.837,0,1.382c3.715,3.71,7.407,7.441,11.07,11.21
	c0.576,0.592,0.987,0.605,1.683,0.224c5.143-2.854,10.313-5.668,15.47-8.504c0.87-0.478,1.745-0.955,2.543-1.54
	c1.073-0.79,1.782-1.844,1.839-3.342C161.909,706.838,160.679,705.699,159.1,704.819z"/>
<text transform="matrix(1 0 0 1 183.4961 729.2344)" fill="#FFFFFF" font-family="'RVHarmonia-SemiBold'" font-size="57.8995">GOOGLE PLAY</text>
<g>
	<path fill="#FFFFFF" d="M226.226,74.472v1.274c0,2.777-0.425,5.471-1.274,8.076c-0.85,2.604-2.123,4.902-3.821,6.891
		c-1.699,1.989-3.802,3.581-6.311,4.776c-2.51,1.196-5.443,1.795-8.801,1.795c-3.05,0-5.829-0.56-8.337-1.679
		c-2.51-1.119-4.661-2.625-6.456-4.517c-1.795-1.891-3.194-4.101-4.198-6.629c-1.004-2.528-1.505-5.201-1.505-8.021
		c0-2.972,0.521-5.74,1.563-8.309c1.042-2.566,2.47-4.796,4.285-6.688c1.813-1.891,3.975-3.377,6.484-4.458
		c2.509-1.08,5.23-1.621,8.164-1.621c2.393,0,4.603,0.289,6.629,0.868s3.84,1.39,5.442,2.432s2.972,2.297,4.111,3.764
		c1.138,1.468,2.035,3.089,2.692,4.863h-7.411c-0.965-1.853-2.422-3.319-4.371-4.4c-1.95-1.08-4.256-1.621-6.919-1.621
		c-2.008,0-3.851,0.367-5.53,1.101c-1.679,0.733-3.117,1.766-4.313,3.098c-1.197,1.331-2.133,2.915-2.808,4.747
		c-0.676,1.834-1.013,3.851-1.013,6.052c0,2.315,0.356,4.41,1.071,6.281c0.714,1.873,1.688,3.455,2.924,4.748
		c1.235,1.293,2.711,2.297,4.429,3.012c1.717,0.715,3.58,1.071,5.587,1.071c1.698,0,3.261-0.291,4.69-0.87
		c1.428-0.578,2.682-1.359,3.764-2.345c1.08-0.983,1.958-2.151,2.634-3.503c0.675-1.352,1.109-2.816,1.303-4.4h-14.88v-5.79H226.226
		L226.226,74.472z"/>
	<path fill="#FFFFFF" d="M230.278,76.324c0-2.816,0.521-5.5,1.563-8.048c1.042-2.547,2.499-4.776,4.372-6.688
		c1.872-1.91,4.091-3.435,6.658-4.573c2.566-1.139,5.375-1.709,8.424-1.709c3.243,0,6.146,0.579,8.714,1.737
		c2.566,1.158,4.748,2.712,6.542,4.661c1.795,1.949,3.175,4.188,4.14,6.716c0.964,2.529,1.447,5.163,1.447,7.903
		c0,2.896-0.531,5.616-1.592,8.163c-1.062,2.549-2.528,4.777-4.4,6.688c-1.873,1.91-4.082,3.416-6.629,4.517
		c-2.547,1.1-5.308,1.649-8.279,1.649c-3.629,0-6.755-0.637-9.38-1.909c-2.625-1.275-4.797-2.914-6.514-4.923
		c-1.718-2.006-2.992-4.265-3.821-6.774C230.692,81.229,230.278,78.757,230.278,76.324z M237.284,76.324
		c0,2.124,0.356,4.092,1.071,5.906c0.714,1.813,1.688,3.387,2.924,4.719c1.235,1.332,2.702,2.374,4.4,3.127
		c1.698,0.752,3.532,1.129,5.5,1.129c1.968,0,3.812-0.377,5.529-1.129c1.717-0.753,3.194-1.795,4.429-3.127
		c1.235-1.332,2.209-2.904,2.924-4.719c0.713-1.814,1.071-3.782,1.071-5.906c0-2.084-0.338-4.032-1.013-5.848
		c-0.676-1.813-1.621-3.387-2.837-4.719c-1.216-1.331-2.673-2.383-4.372-3.155c-1.699-0.771-3.59-1.158-5.674-1.158
		c-1.969,0-3.803,0.376-5.5,1.129c-1.699,0.753-3.176,1.786-4.43,3.098c-1.254,1.313-2.239,2.886-2.953,4.719
		C237.64,72.224,237.284,74.202,237.284,76.324z"/>
	<path fill="#FFFFFF" d="M276.192,76.324c0-2.816,0.521-5.5,1.563-8.048c1.042-2.547,2.499-4.776,4.372-6.688
		c1.872-1.91,4.091-3.435,6.658-4.573c2.566-1.139,5.375-1.709,8.424-1.709c3.243,0,6.146,0.579,8.714,1.737
		c2.566,1.158,4.748,2.712,6.543,4.661c1.795,1.949,3.174,4.188,4.14,6.716c0.964,2.529,1.447,5.163,1.447,7.903
		c0,2.896-0.531,5.616-1.592,8.163c-1.063,2.549-2.529,4.777-4.4,6.688c-1.873,1.91-4.082,3.416-6.63,4.517
		c-2.547,1.1-5.308,1.649-8.279,1.649c-3.629,0-6.755-0.637-9.38-1.909c-2.625-1.275-4.797-2.914-6.514-4.923
		c-1.718-2.006-2.992-4.265-3.821-6.774C276.607,81.229,276.192,78.757,276.192,76.324z M283.198,76.324
		c0,2.124,0.356,4.092,1.071,5.906c0.714,1.813,1.688,3.387,2.924,4.719c1.235,1.332,2.702,2.374,4.4,3.127
		c1.698,0.752,3.532,1.129,5.5,1.129c1.968,0,3.813-0.377,5.529-1.129c1.717-0.753,3.194-1.795,4.429-3.127
		c1.235-1.332,2.209-2.904,2.924-4.719c0.714-1.814,1.071-3.782,1.071-5.906c0-2.084-0.338-4.032-1.013-5.848
		c-0.676-1.813-1.621-3.387-2.838-4.719c-1.215-1.331-2.673-2.383-4.371-3.155c-1.699-0.771-3.59-1.158-5.674-1.158
		c-1.969,0-3.803,0.376-5.5,1.129c-1.699,0.753-3.176,1.786-4.43,3.098c-1.254,1.313-2.239,2.886-2.953,4.719
		C283.555,72.224,283.198,74.202,283.198,76.324z"/>
	<path fill="#FFFFFF" d="M362.811,74.472v1.274c0,2.777-0.426,5.471-1.273,8.076c-0.85,2.604-2.123,4.902-3.821,6.891
		c-1.698,1.989-3.803,3.581-6.312,4.776c-2.51,1.196-5.442,1.795-8.801,1.795c-3.05,0-5.828-0.56-8.338-1.679
		s-4.66-2.625-6.455-4.517c-1.795-1.891-3.194-4.101-4.197-6.629c-1.006-2.528-1.506-5.201-1.506-8.021
		c0-2.972,0.521-5.74,1.563-8.309c1.042-2.566,2.471-4.796,4.284-6.688c1.813-1.891,3.976-3.377,6.485-4.458
		c2.508-1.08,5.229-1.621,8.162-1.621c2.395,0,4.604,0.289,6.631,0.868c2.025,0.579,3.84,1.39,5.441,2.432s2.973,2.297,4.111,3.764
		c1.138,1.468,2.035,3.089,2.691,4.863h-7.41c-0.967-1.853-2.424-3.319-4.373-4.4c-1.948-1.08-4.254-1.621-6.918-1.621
		c-2.008,0-3.851,0.367-5.529,1.101c-1.68,0.733-3.117,1.766-4.313,3.098c-1.197,1.331-2.134,2.915-2.809,4.747
		c-0.676,1.834-1.014,3.851-1.014,6.052c0,2.315,0.355,4.41,1.07,6.281c0.715,1.873,1.688,3.455,2.924,4.748
		c1.236,1.293,2.711,2.297,4.431,3.012c1.717,0.715,3.579,1.071,5.587,1.071c1.697,0,3.262-0.291,4.689-0.87
		c1.426-0.578,2.683-1.359,3.764-2.345c1.08-0.983,1.959-2.151,2.635-3.503c0.675-1.352,1.109-2.816,1.303-4.4h-14.88v-5.79H362.811
		L362.811,74.472z"/>
	<path fill="#FFFFFF" d="M368.889,56.581h6.832v33.466h16.617v6.021h-23.449V56.581z"/>
	<path fill="#FFFFFF" d="M419.782,62.603h-15.98v10.132h15.401v5.849h-15.401v11.464h16.617v6.022H396.97V56.581h22.813
		L419.782,62.603L419.782,62.603z"/>
	<path fill="#FFFFFF" d="M442.42,56.581h12.159c2.122,0,4.082,0.251,5.877,0.753s3.348,1.265,4.661,2.287
		c1.312,1.022,2.345,2.315,3.098,3.879c0.752,1.563,1.129,3.407,1.129,5.529c0,3.899-1.227,6.977-3.677,9.235
		c-2.452,2.258-6.264,3.387-11.436,3.387h-4.979v14.418h-6.832V56.581z M462.396,69.146c0-0.965-0.146-1.862-0.436-2.692
		c-0.289-0.83-0.743-1.554-1.36-2.172c-0.617-0.617-1.419-1.1-2.401-1.447c-0.984-0.348-2.172-0.521-3.563-0.521h-5.385v13.665h5.27
		c1.544,0,2.827-0.183,3.851-0.55c1.021-0.366,1.833-0.868,2.433-1.505c0.599-0.637,1.014-1.37,1.244-2.2
		C462.28,70.893,462.396,70.033,462.396,69.146z"/>
	<path fill="#FFFFFF" d="M474.495,56.581h6.832v33.466h16.617v6.021h-23.449V56.581z"/>
	<path fill="#FFFFFF" d="M515.892,56.581h6.255l14.994,39.487h-7.12l-3.532-9.668H510.74l-3.59,9.668h-6.948L515.892,56.581z
		 M512.534,81.188h12.158l-3.647-10.132c-0.425-1.119-0.82-2.277-1.187-3.474c-0.367-1.196-0.705-2.316-1.015-3.358h-0.289
		c-0.31,1.081-0.666,2.229-1.07,3.445c-0.405,1.216-0.82,2.364-1.245,3.444L512.534,81.188z"/>
	<path fill="#FFFFFF" d="M550.689,80.204l-12.622-23.623h7.525l6.658,12.911c0.425,0.85,0.812,1.66,1.158,2.432
		c0.348,0.773,0.656,1.545,0.927,2.316h0.115c0.309-0.811,0.638-1.572,0.984-2.287c0.348-0.714,0.732-1.515,1.157-2.402l6.369-12.97
		h7.121l-12.563,23.563v15.924h-6.832L550.689,80.204L550.689,80.204z"/>
</g>
<rect x="-10.25" y="-241" width="632.5" height="150"/>
<path fill="#FFFFFF" d="M113.954-165.099c-5.856-5.874-11.689-11.783-17.526-17.683c-9.01-9.108-18.023-18.216-27.013-27.348
	c-0.553-0.563-0.88-0.436-1.328,0.046c-1.163,1.23-1.484,2.724-1.479,4.354c0.009,13.297,0.004,26.598,0.004,39.894
	c-0.009,0-0.014,0-0.023,0c0,5.568,0,11.137,0.004,16.706c0,7.879,0.019,15.754,0.015,23.629c0,1.871,0.586,3.439,2.113,4.607
	c0.841,0.643,1.451,0.732,2.325-0.137c14.279-14.227,28.597-28.422,42.928-42.602C114.572-164.229,114.52-164.531,113.954-165.099z"
	/>
<path fill="#FFFFFF" d="M115.934-166.733c0.586,0.596,0.855,0.346,1.291-0.095c4.06-4.041,8.121-8.082,12.213-12.09
	c0.647-0.634,0.667-0.896-0.174-1.366c-18.312-10.183-36.61-20.392-54.911-30.598c-0.742-0.415-1.513-0.731-2.604-0.723
	c0.245,0.308,0.345,0.453,0.468,0.577C86.793-196.266,101.376-181.514,115.934-166.733z"/>
<path fill="#FFFFFF" d="M117.612-161.43c-0.738-0.769-1.116-0.875-1.943-0.044c-13.249,13.39-26.541,26.744-39.828,40.109
	c0.146-0.096,0.407-0.348,0.69-0.5c17.04-9.311,34.079-18.627,51.128-27.914c0.822-0.449,0.771-0.694,0.166-1.295
	C124.394-154.501,120.977-157.941,117.612-161.43z"/>
<path fill="#FFFFFF" d="M148.85-169.348c-5.109-2.849-10.223-5.681-15.319-8.556c-0.629-0.354-0.989-0.296-1.494,0.208
	c-4.288,4.288-8.593,8.556-12.918,12.801c-0.559,0.543-0.543,0.836,0,1.381c3.715,3.71,7.407,7.442,11.07,11.21
	c0.576,0.592,0.987,0.606,1.683,0.224c5.143-2.855,10.313-5.668,15.47-8.504c0.87-0.477,1.745-0.955,2.543-1.54
	c1.073-0.79,1.782-1.844,1.839-3.342C151.659-167.328,150.429-168.468,148.85-169.348z"/>
<text transform="matrix(1 0 0 1 173.2461 -144.9316)" fill="#FFFFFF" font-family="'RVHarmonia-SemiBold'" font-size="57.8995">GOOGLE PLAY</text>
</svg>
