<?xml version="1.0" encoding="utf-8"?>
<!-- Generator: Adobe Illustrator 19.0.0, SVG Export Plug-In . SVG Version: 6.00 Build 0)  -->
<svg version="1.1" id="US_UK_Download_on_the" xmlns="http://www.w3.org/2000/svg" xmlns:xlink="http://www.w3.org/1999/xlink"
	 x="0px" y="0px" viewBox="9 322 629.9 150" style="enable-background:new 9 322 629.9 150;" xml:space="preserve">
<style type="text/css">
	.st0{fill:#A6A6A6;}
	.st1{fill:#FFFFFF;}
	.st2{enable-background:new    ;}
	.st3{stroke:#000000;stroke-miterlimit:10;}
	.st4{fill:#FFFFFF;stroke:#000000;stroke-miterlimit:10;}
</style>
<path class="st0" d="M599.2,864.3H30.3C18.5,864.3,9,854.8,9,843V704.3c0-11.8,9.5-21.3,21.3-21.3h568.9c11.8,0,21.8,9.5,21.8,21.3
	v138.3C621,854.8,611,864.3,599.2,864.3L599.2,864.3z"/>
<path d="M616.7,843c0,9.5-7.7,17.2-17.2,17.2H30.5c-9.5,0-17.2-7.7-17.2-17.2V704.3c0-9.5,7.7-17.2,17.2-17.2h568.9
	c9.5,0,17.2,7.7,17.2,17.2L616.7,843L616.7,843z"/>
<g id="Shape_5">
	<g>
		<path class="st1" d="M192.5,722.1h5.7c0.8,2.5,1.1,4.1,1.1,4.6h4c0-0.4-0.9-3.1-2.6-8c-1.7-4.9-2.6-7.6-2.6-8h-4.7
			c0,0.5-1,3.2-2.9,8.2c-1.9,4.9-2.9,7.6-2.9,7.9h3.7C191.4,726.1,191.7,724.6,192.5,722.1z M195.3,712.8h0.2c0,0.4,0.7,2.6,2.1,6.9
			h-4.5C194.6,715.5,195.3,713.2,195.3,712.8z M209.1,726.7c-0.1-2.9-0.2-5.4-0.2-7.4c0-1.4-0.1-3.1-0.3-4.9h0.2
			c0.3,1.2,1.7,3.6,4.1,7c2.3,3.2,3.4,5,3.4,5.3h3.1c-0.1-2.5-0.2-5.3-0.2-8.4c0-3.1,0.1-5.6,0.2-7.7h-3.1c0.1,2.3,0.2,4.6,0.2,6.9
			c0,1.5,0.1,3.1,0.3,4.9h-0.2c-0.3-1.1-1.6-3.3-3.7-6.6c-2-3-3.1-4.8-3.1-5.2H206c0.1,2.1,0.2,4.6,0.2,7.6c0,3.1-0.1,5.9-0.2,8.4
			L209.1,726.7L209.1,726.7L209.1,726.7z M228.7,726.8c2.7,0,4.8-0.9,6.3-2.6c1.5-1.7,2.3-3.8,2.3-6.1c0-2.1-0.7-3.8-2-5.3
			c-1.3-1.5-3.5-2.2-6.5-2.2c-0.2,0-0.7,0-1.4,0c-0.7,0-1.2,0-1.6,0h-2.2c0.1,2.1,0.2,4.7,0.2,7.7c0,3.1-0.1,5.9-0.2,8.4
			C225.8,726.8,227.5,726.8,228.7,726.8z M228.2,713c1.9,0,3.3,0.5,4.2,1.6c0.9,1.1,1.4,2.4,1.4,4c0,1.6-0.4,2.9-1.3,4
			c-0.9,1.1-2.2,1.6-3.9,1.6c-0.5,0-1.1-0.1-1.6-0.2c-0.1-1.9-0.1-3.9-0.1-5.8c0-1.8,0-3.5-0.1-5.2C227.4,713.1,227.9,713,228.2,713
			z M250.1,726.7h3.7c-1.1-2.8-1.9-4.8-2.5-5.8c-0.6-1.1-1.4-1.7-2.2-1.9v-0.2c2.2-0.8,3.2-2.2,3.2-4.3c0-2.6-1.9-3.9-5.7-3.9
			c-0.7,0-1.4,0-2.2,0s-1.3,0-1.6,0h-2.1c0.1,2.1,0.2,4.7,0.2,7.6c0,3.1-0.1,5.9-0.2,8.4h3.4c-0.1-2.1-0.1-4.3-0.1-6.4
			c0.4,0,0.9,0,1.4,0c1.1,0,2,0.3,2.5,1C248.4,722,249.2,723.8,250.1,726.7z M245.2,718.1c-0.3,0-0.7,0-1.2,0c0-2,0-3.7-0.1-5
			c0.6-0.1,1.3-0.2,2.1-0.2c2.1,0,3.2,0.8,3.2,2.5C249.2,717.2,247.8,718.1,245.2,718.1z M263.5,727.1c2.3,0,4.2-0.8,5.8-2.5
			s2.3-3.7,2.3-6.3c0-2.4-0.7-4.3-2.2-5.8c-1.5-1.5-3.3-2.3-5.5-2.3c-2.3,0-4.2,0.8-5.8,2.5c-1.6,1.7-2.3,3.8-2.3,6.3
			c0,2.4,0.7,4.3,2.2,5.8C259.5,726.4,261.3,727.1,263.5,727.1z M260.5,714.6c0.8-1.1,1.9-1.6,3.1-1.6c1.3,0,2.4,0.5,3.3,1.6
			c0.9,1.1,1.3,2.5,1.3,4.2c0,1.6-0.4,3-1.3,4.1c-0.8,1.1-1.9,1.6-3.1,1.6c-1.3,0-2.4-0.5-3.3-1.6c-0.9-1.1-1.3-2.5-1.3-4.2
			C259.2,717,259.6,715.6,260.5,714.6z M278.6,726.7c-0.1-2.5-0.2-5.3-0.2-8.4c0-3,0.1-5.6,0.2-7.7h-3.5c0.1,2.1,0.2,4.6,0.2,7.7
			c0,3-0.1,5.8-0.2,8.4H278.6z M287.9,726.8c2.7,0,4.8-0.9,6.3-2.6c1.5-1.7,2.3-3.8,2.3-6.1c0-2.1-0.7-3.8-2-5.3
			c-1.3-1.5-3.5-2.2-6.5-2.2c-0.2,0-0.7,0-1.4,0c-0.7,0-1.2,0-1.6,0h-2.2c0.1,2.1,0.2,4.7,0.2,7.7c0,3.1-0.1,5.9-0.2,8.4
			C285,726.8,286.7,726.8,287.9,726.8z M287.5,713c1.9,0,3.3,0.5,4.2,1.6c0.9,1.1,1.4,2.4,1.4,4c0,1.6-0.4,2.9-1.3,4
			c-0.9,1.1-2.2,1.6-4,1.6c-0.5,0-1.1-0.1-1.6-0.2c-0.1-1.9-0.1-3.9-0.1-5.8c0-1.8,0-3.5-0.1-5.2C286.7,713.1,287.1,713,287.5,713z
			 M309.5,722.1h5.7c0.8,2.5,1.1,4.1,1.1,4.6h4c0-0.4-0.9-3.1-2.6-8c-1.7-4.9-2.6-7.6-2.6-8h-4.7c0,0.5-1,3.2-2.9,8.2
			c-1.9,4.9-2.9,7.6-2.9,7.9h3.7C308.3,726.1,308.7,724.6,309.5,722.1z M312.3,712.8h0.2c0,0.4,0.7,2.6,2.1,6.9h-4.5
			C311.6,715.5,312.3,713.2,312.3,712.8z M334.8,714.8c0-1.4-0.5-2.5-1.6-3.2c-1.1-0.7-2.4-1.1-4-1.1c-0.6,0-1.4,0-2.3,0
			c-0.9,0-1.5,0-1.8,0H323c0.1,2.1,0.2,4.7,0.2,7.7c0,3.2-0.1,6-0.2,8.4h3.5c-0.1-2.5-0.1-4.6-0.1-6.1c0.2,0,0.4,0,0.8,0
			c2.1,0,3.9-0.5,5.4-1.4C334,718.3,334.8,716.8,334.8,714.8z M327,718.4c-0.3,0-0.5,0-0.7,0c0-2,0-3.7-0.1-5.3
			c0.7-0.1,1.3-0.2,1.9-0.2c2.3,0,3.5,0.9,3.5,2.6C331.6,717.4,330.1,718.4,327,718.4z M341.3,726.7c-0.1-2.5-0.1-4.6-0.1-6.1
			c0.2,0,0.4,0,0.8,0c2.1,0,3.9-0.5,5.4-1.4c1.5-0.9,2.2-2.4,2.2-4.4c0-1.4-0.5-2.5-1.6-3.2c-1.1-0.7-2.4-1.1-4-1.1
			c-0.6,0-1.4,0-2.3,0c-0.9,0-1.4,0-1.8,0h-2.2c0.1,2.1,0.2,4.7,0.2,7.7c0,3.2-0.1,6-0.2,8.4L341.3,726.7L341.3,726.7z M342.9,712.9
			c2.4,0,3.5,0.9,3.5,2.6c0,1.9-1.5,2.8-4.5,2.8c-0.3,0-0.5,0-0.7,0c0-2,0-3.7-0.1-5.3C341.7,713,342.3,712.9,342.9,712.9z
			 M366.2,710.3c-2.3,0-4.2,0.8-5.8,2.5c-1.6,1.7-2.3,3.7-2.3,6.3c0,2.3,0.7,4.3,2.2,5.8c1.5,1.5,3.3,2.3,5.5,2.3
			c2.3,0,4.2-0.8,5.8-2.5c1.6-1.7,2.3-3.7,2.3-6.3c0-2.4-0.7-4.3-2.2-5.8C370.2,711,368.4,710.3,366.2,710.3z M369.2,722.8
			c-0.8,1.1-1.9,1.6-3.1,1.6c-1.3,0-2.4-0.5-3.3-1.6c-0.9-1.1-1.3-2.5-1.3-4.2c0-1.6,0.4-3,1.3-4.1c0.8-1.1,1.9-1.6,3.1-1.6
			c1.3,0,2.4,0.5,3.3,1.6c0.9,1.1,1.3,2.5,1.3,4.2C370.5,720.4,370.1,721.7,369.2,722.8z M387.6,710.6c0.1,2.3,0.2,4.6,0.2,6.9
			c0,1.5,0.1,3.1,0.3,4.9h-0.2c-0.3-1.1-1.6-3.3-3.7-6.6c-2-3-3.1-4.8-3.1-5.2h-3.7c0.1,2.1,0.2,4.6,0.2,7.6c0,3.1-0.1,5.9-0.2,8.4
			h3.1c-0.1-2.9-0.2-5.4-0.2-7.4c0-1.4-0.1-3.1-0.3-4.9h0.2c0.3,1.2,1.7,3.6,4.1,7c2.3,3.2,3.4,5,3.4,5.3h3.1
			c-0.1-2.5-0.2-5.3-0.2-8.4c0-3.1,0.1-5.6,0.2-7.6L387.6,710.6L387.6,710.6L387.6,710.6L387.6,710.6z M216.4,773.8v6.9h20.8
			c-0.4,4.9-2,8.8-4.8,11.5c-4.3,4.2-9.6,6.4-16,6.4c-6,0-11.2-2.1-15.6-6.3c-4.4-4.2-6.6-9.7-6.6-16.4c0-6.7,2.2-12.2,6.6-16.4
			c4.4-4.2,9.6-6.3,15.6-6.3c6.7,0,11.9,2.3,15.7,6.8l5-5c-2.2-2.6-5.2-4.8-9-6.4c-3.7-1.6-7.7-2.4-11.8-2.4
			c-8.3,0-15.3,2.8-21.1,8.6c-5.8,5.7-8.7,12.8-8.7,21.2c0,8.4,2.9,15.5,8.7,21.2c5.8,5.7,12.8,8.6,21.1,8.6c8.6,0,15.7-2.8,21-8.4
			c4.7-4.7,7.1-11.1,7.1-19c0-1.4-0.1-2.8-0.4-4.3L216.4,773.8L216.4,773.8z M267.8,764c-5.9,0-10.7,2-14.5,5.9
			c-3.8,4-5.7,8.9-5.7,14.9c0,6,1.9,10.9,5.7,14.9c3.8,4,8.6,5.9,14.5,5.9c5.9,0,10.7-2,14.5-5.9c3.8-4,5.7-8.9,5.7-14.9
			c0-5.9-1.9-10.9-5.7-14.9C278.5,766,273.7,764,267.8,764z M276.8,795c-2.5,2.6-5.5,3.9-9,3.9c-3.5,0-6.5-1.3-9-3.9
			c-2.5-2.6-3.8-6-3.8-10.2c0-4.2,1.3-7.7,3.8-10.2c2.5-2.6,5.5-3.9,9-3.9c3.5,0,6.5,1.3,9,3.9c2.5,2.6,3.8,6,3.8,10.2
			C280.6,789,279.3,792.5,276.8,795z M310.6,764c-5.9,0-10.7,2-14.5,5.9c-3.8,4-5.7,8.9-5.7,14.9c0,6,1.9,10.9,5.7,14.9
			c3.8,4,8.6,5.9,14.5,5.9s10.7-2,14.5-5.9c3.8-4,5.7-8.9,5.7-14.9c0-5.9-1.9-10.9-5.7-14.9C321.3,766,316.5,764,310.6,764z
			 M319.6,795c-2.5,2.6-5.5,3.9-9,3.9c-3.5,0-6.5-1.3-9-3.9c-2.5-2.6-3.8-6-3.8-10.2c0-4.2,1.3-7.7,3.8-10.2c2.5-2.6,5.5-3.9,9-3.9
			c3.5,0,6.5,1.3,9,3.9c2.5,2.6,3.8,6,3.8,10.2C323.4,789,322.2,792.5,319.6,795z M365.6,770.7h-0.3c-1.3-1.9-3.1-3.5-5.4-4.8
			c-2.3-1.3-5-1.9-7.9-1.9c-5.1,0-9.4,2-13.1,6c-3.7,4-5.5,8.9-5.5,14.8c0,5.9,1.8,10.8,5.5,14.8c3.7,4,8.1,6,13.1,6
			c2.9,0,5.6-0.6,7.9-1.9c2.4-1.3,4.2-2.9,5.4-4.8h0.3v3.7c0,4.1-1.2,7.4-3.5,9.8c-2.3,2.4-5.5,3.6-9.6,3.6c-2.6,0-4.9-0.7-6.8-2.1
			c-2-1.4-3.4-3.2-4.1-5.3l-6.7,2.8c1.3,3,3.4,5.6,6.3,7.9c2.9,2.3,6.7,3.5,11.4,3.5c5.6,0,10.3-1.7,14.2-5.2
			c3.9-3.5,5.8-8.6,5.8-15.3v-37h-7L365.6,770.7L365.6,770.7L365.6,770.7L365.6,770.7L365.6,770.7z M362,795.1
			c-2.4,2.5-5.4,3.8-8.8,3.8c-3.4,0-6.4-1.3-8.8-3.9c-2.5-2.6-3.7-6-3.7-10.2s1.2-7.7,3.7-10.2c2.5-2.6,5.4-3.9,8.8-3.9
			c3.5,0,6.4,1.3,8.8,3.8c2.4,2.6,3.6,6,3.6,10.3C365.6,789.1,364.4,792.5,362,795.1z M379.6,804.3h7.4v-57h-7.4V804.3z M410.5,764
			c-5.6,0-10.2,2-13.8,6.1c-3.6,4.1-5.4,9-5.4,14.7c0,6,1.9,11,5.6,14.9c3.7,3.9,8.5,5.9,14.4,5.9c4.3,0,7.9-1,10.8-3.1
			c2.9-2,5-4.6,6.3-7.6l-6.6-2.7c-1.9,4.5-5.4,6.7-10.7,6.7c-3.3,0-6.1-1.1-8.5-3.4c-2.4-2.3-3.7-5.4-4-9.3h31l0.1-1.4
			c0-6.3-1.7-11.4-5.2-15.1C421,765.9,416.3,764,410.5,764z M399.1,780.1c0.8-2.9,2.1-5.1,4.1-6.8c2-1.7,4.4-2.6,7.1-2.6
			c3.7,0,6.6,1,8.4,3c1.9,2,2.9,4.1,3.1,6.4L399.1,780.1L399.1,780.1z M483.4,752.1c-3.5-3.2-7.7-4.8-12.6-4.8h-19.5v57h7.4v-23.1
			h12.2c4.9,0,9-1.6,12.6-4.8c3.6-3.2,5.3-7.3,5.3-12.2C488.8,759.4,487,755.3,483.4,752.1z M478.4,771.1c-1.9,2.1-4.4,3.1-7.4,3.1
			h-12.3v-19.9H471c3.1,0,5.6,1,7.4,3.1c1.9,2.1,2.8,4.4,2.8,6.8C481.2,766.7,480.3,769,478.4,771.1z M493.6,804.3h7.4v-57h-7.4
			V804.3z M535.2,768.4c-3.3-2.9-7.5-4.4-12.5-4.4c-4.4,0-7.9,1-10.6,3c-2.7,2-4.5,4.2-5.4,6.5l6.7,2.9c0.6-1.8,1.8-3.1,3.6-4.1
			c1.7-1,3.7-1.5,5.8-1.5c2.9,0,5.3,0.9,7.3,2.6c2,1.7,3,4,3,6.9v1.1c-2.8-1.6-6.3-2.4-10.6-2.4c-4.9,0-8.9,1.2-12.2,3.6
			c-3.3,2.4-5,5.7-5,10c0,3.9,1.4,7.1,4.2,9.5c2.8,2.4,6.3,3.6,10.4,3.6c5.7,0,10-2.2,12.9-6.7h0.3v5.4h7v-23.6
			C540.1,775.4,538.5,771.3,535.2,768.4z M529.4,795.5c-2.5,2.3-5.2,3.4-8.3,3.4c-2.1,0-4-0.6-5.7-1.7c-1.7-1.1-2.5-2.6-2.5-4.5
			c0-2.1,0.9-3.9,2.7-5.4c1.8-1.5,4.5-2.3,8.1-2.3c4.2,0,7.3,0.8,9.4,2.5C533.1,790.6,531.9,793.2,529.4,795.5z M572.7,765.3
			l-11.4,28h-0.2l-11.7-28h-8l16.2,36.6l-9.1,19.7h7.6l24.6-56.2L572.7,765.3L572.7,765.3z M114.2,775.8c-8-8-16-16.1-24-24.2
			c-12.3-12.5-24.7-25-37-37.5c-0.8-0.8-1.2-0.6-1.8,0.1c-1.6,1.7-2,3.7-2,6c0,18.2,0,36.4,0,54.6c0,0,0,0,0,0c0,7.6,0,15.3,0,22.9
			c0,10.8,0,21.6,0,32.4c0,2.6,0.8,4.7,2.9,6.3c1.2,0.9,2,1,3.2-0.2c19.6-19.5,39.2-38.9,58.8-58.4C115,777,114.9,776.6,114.2,775.8
			z M116.9,773.6c0.8,0.8,1.2,0.5,1.8-0.1c5.6-5.5,11.1-11.1,16.7-16.6c0.9-0.9,0.9-1.2-0.2-1.9c-25.1-13.9-50.1-27.9-75.2-41.9
			c-1-0.6-2.1-1-3.6-1c0.3,0.4,0.5,0.6,0.6,0.8C77,733.1,96.9,753.3,116.9,773.6z M119.2,780.9c-1-1.1-1.5-1.2-2.7-0.1
			c-18.1,18.3-36.4,36.6-54.6,54.9c0.2-0.1,0.6-0.5,0.9-0.7c23.3-12.8,46.7-25.5,70-38.2c1.1-0.6,1.1-0.9,0.2-1.8
			C128.5,790.3,123.8,785.6,119.2,780.9z M162,770c-7-3.9-14-7.8-21-11.7c-0.9-0.5-1.4-0.4-2,0.3c-5.9,5.9-11.8,11.7-17.7,17.5
			c-0.8,0.7-0.7,1.1,0,1.9c5.1,5.1,10.1,10.2,15.2,15.4c0.8,0.8,1.4,0.8,2.3,0.3c7-3.9,14.1-7.8,21.2-11.6c1.2-0.6,2.4-1.3,3.5-2.1
			c1.5-1.1,2.4-2.5,2.5-4.6C165.8,772.8,164.1,771.2,162,770z"/>
	</g>
</g>
<g>
	<rect x="-871.3" y="158.5" width="626.9" height="145"/>
	<path class="st1" d="M-245.9,160v142h-623.9V160H-245.9 M-242.9,157h-3h-623.9h-3v3v142v3h3h623.9h3v-3V160L-242.9,157L-242.9,157z
		"/>
</g>
<path class="st1" d="M-749.9,231.9c-5.9-5.9-11.7-11.8-17.5-17.7c-9-9.1-18-18.2-27-27.3c-0.6-0.6-0.9-0.4-1.3,0
	c-1.2,1.2-1.5,2.7-1.5,4.4c0,13.3,0,26.6,0,39.9c0,0,0,0,0,0c0,5.6,0,11.1,0,16.7c0,7.9,0,15.8,0,23.6c0,1.9,0.6,3.4,2.1,4.6
	c0.8,0.6,1.5,0.7,2.3-0.1c14.3-14.2,28.6-28.4,42.9-42.6C-749.3,232.8-749.3,232.5-749.9,231.9z"/>
<path class="st1" d="M-747.9,230.3c0.6,0.6,0.9,0.3,1.3-0.1c4.1-4,8.1-8.1,12.2-12.1c0.6-0.6,0.7-0.9-0.2-1.4
	c-18.3-10.2-36.6-20.4-54.9-30.6c-0.7-0.4-1.5-0.7-2.6-0.7c0.2,0.3,0.3,0.5,0.5,0.6C-777.1,200.7-762.5,215.5-747.9,230.3z"/>
<path class="st1" d="M-746.3,235.6c-0.7-0.8-1.1-0.9-1.9,0c-13.2,13.4-26.5,26.7-39.8,40.1c0.1-0.1,0.4-0.3,0.7-0.5
	c17-9.3,34.1-18.6,51.1-27.9c0.8-0.4,0.8-0.7,0.2-1.3C-739.5,242.5-742.9,239.1-746.3,235.6z"/>
<path class="st1" d="M-715,227.7c-5.1-2.8-10.2-5.7-15.3-8.6c-0.6-0.4-1-0.3-1.5,0.2c-4.3,4.3-8.6,8.6-12.9,12.8
	c-0.6,0.5-0.5,0.8,0,1.4c3.7,3.7,7.4,7.4,11.1,11.2c0.6,0.6,1,0.6,1.7,0.2c5.1-2.9,10.3-5.7,15.5-8.5c0.9-0.5,1.7-1,2.5-1.5
	c1.1-0.8,1.8-1.8,1.8-3.3C-712.2,229.7-713.4,228.5-715,227.7z"/>
<rect x="9" y="955.2" width="632.5" height="150"/>
<path class="st1" d="M133.2,1031.1c-5.9-5.9-11.7-11.8-17.5-17.7c-9-9.1-18-18.2-27-27.3c-0.6-0.6-0.9-0.4-1.3,0
	c-1.2,1.2-1.5,2.7-1.5,4.4c0,13.3,0,26.6,0,39.9c0,0,0,0,0,0c0,5.6,0,11.1,0,16.7c0,7.9,0,15.8,0,23.6c0,1.9,0.6,3.4,2.1,4.6
	c0.8,0.6,1.5,0.7,2.3-0.1c14.3-14.2,28.6-28.4,42.9-42.6C133.8,1031.9,133.8,1031.6,133.2,1031.1z"/>
<path class="st1" d="M135.2,1029.4c0.6,0.6,0.9,0.3,1.3-0.1c4.1-4,8.1-8.1,12.2-12.1c0.6-0.6,0.7-0.9-0.2-1.4
	c-18.3-10.2-36.6-20.4-54.9-30.6c-0.7-0.4-1.5-0.7-2.6-0.7c0.2,0.3,0.3,0.5,0.5,0.6C106,999.9,120.6,1014.7,135.2,1029.4z"/>
<path class="st1" d="M136.9,1034.7c-0.7-0.8-1.1-0.9-1.9,0c-13.2,13.4-26.5,26.7-39.8,40.1c0.1-0.1,0.4-0.3,0.7-0.5
	c17-9.3,34.1-18.6,51.1-27.9c0.8-0.4,0.8-0.7,0.2-1.3C143.6,1041.7,140.2,1038.2,136.9,1034.7z"/>
<path class="st1" d="M168.1,1026.8c-5.1-2.9-10.2-5.7-15.3-8.6c-0.6-0.4-1-0.3-1.5,0.2c-4.3,4.3-8.6,8.6-12.9,12.8
	c-0.6,0.5-0.5,0.8,0,1.4c3.7,3.7,7.4,7.4,11.1,11.2c0.6,0.6,1,0.6,1.7,0.2c5.1-2.9,10.3-5.7,15.5-8.5c0.9-0.5,1.7-1,2.5-1.5
	c1.1-0.8,1.8-1.8,1.8-3.3C170.9,1028.8,169.7,1027.7,168.1,1026.8z"/>
<text transform="matrix(1 0 0 1 192.4961 1051.2344)" class="st1" style="font-family:'ArialMT'; font-size:57.8995px;">GOOGLE PLAY</text>
<rect x="9" y="955.2" width="632.5" height="150"/>
<path class="st1" d="M133.2,1031.1c-5.9-5.9-11.7-11.8-17.5-17.7c-9-9.1-18-18.2-27-27.3c-0.6-0.6-0.9-0.4-1.3,0
	c-1.2,1.2-1.5,2.7-1.5,4.4c0,13.3,0,26.6,0,39.9c0,0,0,0,0,0c0,5.6,0,11.1,0,16.7c0,7.9,0,15.8,0,23.6c0,1.9,0.6,3.4,2.1,4.6
	c0.8,0.6,1.5,0.7,2.3-0.1c14.3-14.2,28.6-28.4,42.9-42.6C133.8,1031.9,133.8,1031.6,133.2,1031.1z"/>
<path class="st1" d="M135.2,1029.4c0.6,0.6,0.9,0.3,1.3-0.1c4.1-4,8.1-8.1,12.2-12.1c0.6-0.6,0.7-0.9-0.2-1.4
	c-18.3-10.2-36.6-20.4-54.9-30.6c-0.7-0.4-1.5-0.7-2.6-0.7c0.2,0.3,0.3,0.5,0.5,0.6C106,999.9,120.6,1014.7,135.2,1029.4z"/>
<path class="st1" d="M136.9,1034.7c-0.7-0.8-1.1-0.9-1.9,0c-13.2,13.4-26.5,26.7-39.8,40.1c0.1-0.1,0.4-0.3,0.7-0.5
	c17-9.3,34.1-18.6,51.1-27.9c0.8-0.4,0.8-0.7,0.2-1.3C143.6,1041.7,140.2,1038.2,136.9,1034.7z"/>
<path class="st1" d="M168.1,1026.8c-5.1-2.9-10.2-5.7-15.3-8.6c-0.6-0.4-1-0.3-1.5,0.2c-4.3,4.3-8.6,8.6-12.9,12.8
	c-0.6,0.5-0.5,0.8,0,1.4c3.7,3.7,7.4,7.4,11.1,11.2c0.6,0.6,1,0.6,1.7,0.2c5.1-2.9,10.3-5.7,15.5-8.5c0.9-0.5,1.7-1,2.5-1.5
	c1.1-0.8,1.8-1.8,1.8-3.3C170.9,1028.8,169.7,1027.7,168.1,1026.8z"/>
<text transform="matrix(1 0 0 1 192.4961 1051.2344)" class="st1" style="font-family:'ArialMT'; font-size:57.8995px;">GOOGLE PLAY</text>
<g>
	<path class="st1" d="M-647.9,230.5v1.3c0,2.8-0.4,5.5-1.3,8.1c-0.8,2.6-2.1,4.9-3.8,6.9c-1.7,2-3.8,3.6-6.3,4.8
		c-2.5,1.2-5.4,1.8-8.8,1.8c-3,0-5.8-0.6-8.3-1.7c-2.5-1.1-4.7-2.6-6.5-4.5c-1.8-1.9-3.2-4.1-4.2-6.6c-1-2.5-1.5-5.2-1.5-8
		c0-3,0.5-5.7,1.6-8.3c1-2.6,2.5-4.8,4.3-6.7c1.8-1.9,4-3.4,6.5-4.5c2.5-1.1,5.2-1.6,8.2-1.6c2.4,0,4.6,0.3,6.6,0.9s3.8,1.4,5.4,2.4
		c1.6,1,3,2.3,4.1,3.8c1.1,1.5,2,3.1,2.7,4.9h-7.4c-1-1.9-2.4-3.3-4.4-4.4c-2-1.1-4.3-1.6-6.9-1.6c-2,0-3.9,0.4-5.5,1.1
		c-1.7,0.7-3.1,1.8-4.3,3.1c-1.2,1.3-2.1,2.9-2.8,4.7c-0.7,1.8-1,3.9-1,6.1c0,2.3,0.4,4.4,1.1,6.3c0.7,1.9,1.7,3.5,2.9,4.7
		c1.2,1.3,2.7,2.3,4.4,3c1.7,0.7,3.6,1.1,5.6,1.1c1.7,0,3.3-0.3,4.7-0.9c1.4-0.6,2.7-1.4,3.8-2.3c1.1-1,2-2.2,2.6-3.5
		c0.7-1.4,1.1-2.8,1.3-4.4h-14.9v-5.8L-647.9,230.5L-647.9,230.5L-647.9,230.5z"/>
	<path class="st1" d="M-643.8,232.3c0-2.8,0.5-5.5,1.6-8c1-2.5,2.5-4.8,4.4-6.7c1.9-1.9,4.1-3.4,6.7-4.6c2.6-1.1,5.4-1.7,8.4-1.7
		c3.2,0,6.1,0.6,8.7,1.7c2.6,1.2,4.7,2.7,6.5,4.7c1.8,1.9,3.2,4.2,4.1,6.7c1,2.5,1.4,5.2,1.4,7.9c0,2.9-0.5,5.6-1.6,8.2
		c-1.1,2.5-2.5,4.8-4.4,6.7c-1.9,1.9-4.1,3.4-6.6,4.5c-2.5,1.1-5.3,1.6-8.3,1.6c-3.6,0-6.8-0.6-9.4-1.9c-2.6-1.3-4.8-2.9-6.5-4.9
		c-1.7-2-3-4.3-3.8-6.8C-643.4,237.2-643.8,234.8-643.8,232.3z M-636.8,232.3c0,2.1,0.4,4.1,1.1,5.9c0.7,1.8,1.7,3.4,2.9,4.7
		c1.2,1.3,2.7,2.4,4.4,3.1c1.7,0.8,3.5,1.1,5.5,1.1s3.8-0.4,5.5-1.1c1.7-0.8,3.2-1.8,4.4-3.1s2.2-2.9,2.9-4.7
		c0.7-1.8,1.1-3.8,1.1-5.9c0-2.1-0.3-4-1-5.8c-0.7-1.8-1.6-3.4-2.8-4.7c-1.2-1.3-2.7-2.4-4.4-3.2c-1.7-0.8-3.6-1.2-5.7-1.2
		c-2,0-3.8,0.4-5.5,1.1c-1.7,0.8-3.2,1.8-4.4,3.1c-1.3,1.3-2.2,2.9-3,4.7C-636.5,228.2-636.8,230.2-636.8,232.3z"/>
	<path class="st1" d="M-597.9,232.3c0-2.8,0.5-5.5,1.6-8c1-2.5,2.5-4.8,4.4-6.7c1.9-1.9,4.1-3.4,6.7-4.6c2.6-1.1,5.4-1.7,8.4-1.7
		c3.2,0,6.1,0.6,8.7,1.7c2.6,1.2,4.7,2.7,6.5,4.7c1.8,1.9,3.2,4.2,4.1,6.7c1,2.5,1.4,5.2,1.4,7.9c0,2.9-0.5,5.6-1.6,8.2
		c-1.1,2.5-2.5,4.8-4.4,6.7c-1.9,1.9-4.1,3.4-6.6,4.5c-2.5,1.1-5.3,1.6-8.3,1.6c-3.6,0-6.8-0.6-9.4-1.9c-2.6-1.3-4.8-2.9-6.5-4.9
		c-1.7-2-3-4.3-3.8-6.8C-597.5,237.2-597.9,234.8-597.9,232.3z M-590.9,232.3c0,2.1,0.4,4.1,1.1,5.9c0.7,1.8,1.7,3.4,2.9,4.7
		c1.2,1.3,2.7,2.4,4.4,3.1c1.7,0.8,3.5,1.1,5.5,1.1s3.8-0.4,5.5-1.1c1.7-0.8,3.2-1.8,4.4-3.1s2.2-2.9,2.9-4.7
		c0.7-1.8,1.1-3.8,1.1-5.9c0-2.1-0.3-4-1-5.8c-0.7-1.8-1.6-3.4-2.8-4.7c-1.2-1.3-2.7-2.4-4.4-3.2c-1.7-0.8-3.6-1.2-5.7-1.2
		c-2,0-3.8,0.4-5.5,1.1c-1.7,0.8-3.2,1.8-4.4,3.1c-1.3,1.3-2.2,2.9-3,4.7C-590.6,228.2-590.9,230.2-590.9,232.3z"/>
	<path class="st1" d="M-511.3,230.5v1.3c0,2.8-0.4,5.5-1.3,8.1c-0.8,2.6-2.1,4.9-3.8,6.9c-1.7,2-3.8,3.6-6.3,4.8
		c-2.5,1.2-5.4,1.8-8.8,1.8c-3,0-5.8-0.6-8.3-1.7c-2.5-1.1-4.7-2.6-6.5-4.5c-1.8-1.9-3.2-4.1-4.2-6.6c-1-2.5-1.5-5.2-1.5-8
		c0-3,0.5-5.7,1.6-8.3c1-2.6,2.5-4.8,4.3-6.7c1.8-1.9,4-3.4,6.5-4.5c2.5-1.1,5.2-1.6,8.2-1.6c2.4,0,4.6,0.3,6.6,0.9
		c2,0.6,3.8,1.4,5.4,2.4c1.6,1,3,2.3,4.1,3.8c1.1,1.5,2,3.1,2.7,4.9h-7.4c-1-1.9-2.4-3.3-4.4-4.4c-1.9-1.1-4.3-1.6-6.9-1.6
		c-2,0-3.9,0.4-5.5,1.1c-1.7,0.7-3.1,1.8-4.3,3.1c-1.2,1.3-2.1,2.9-2.8,4.7c-0.7,1.8-1,3.9-1,6.1c0,2.3,0.4,4.4,1.1,6.3
		c0.7,1.9,1.7,3.5,2.9,4.7s2.7,2.3,4.4,3c1.7,0.7,3.6,1.1,5.6,1.1c1.7,0,3.3-0.3,4.7-0.9c1.4-0.6,2.7-1.4,3.8-2.3
		c1.1-1,2-2.2,2.6-3.5c0.7-1.4,1.1-2.8,1.3-4.4h-14.9v-5.8L-511.3,230.5L-511.3,230.5L-511.3,230.5z"/>
	<path class="st1" d="M-505.2,212.6h6.8V246h16.6v6h-23.4V212.6z"/>
	<path class="st1" d="M-454.3,218.6h-16v10.1h15.4v5.8h-15.4V246h16.6v6h-23.4v-39.5h22.8L-454.3,218.6L-454.3,218.6z"/>
	<path class="st1" d="M-431.7,212.6h12.2c2.1,0,4.1,0.3,5.9,0.8s3.3,1.3,4.7,2.3c1.3,1,2.3,2.3,3.1,3.9c0.8,1.6,1.1,3.4,1.1,5.5
		c0,3.9-1.2,7-3.7,9.2c-2.5,2.3-6.3,3.4-11.4,3.4h-5v14.4h-6.8V212.6z M-411.7,225.1c0-1-0.1-1.9-0.4-2.7c-0.3-0.8-0.7-1.6-1.4-2.2
		c-0.6-0.6-1.4-1.1-2.4-1.4c-1-0.3-2.2-0.5-3.6-0.5h-5.4V232h5.3c1.5,0,2.8-0.2,3.9-0.6c1-0.4,1.8-0.9,2.4-1.5
		c0.6-0.6,1-1.4,1.2-2.2C-411.8,226.9-411.7,226-411.7,225.1z"/>
	<path class="st1" d="M-399.6,212.6h6.8V246h16.6v6h-23.4V212.6z"/>
	<path class="st1" d="M-358.2,212.6h6.3l15,39.5h-7.1l-3.5-9.7h-15.7l-3.6,9.7h-6.9L-358.2,212.6z M-361.6,237.2h12.2l-3.6-10.1
		c-0.4-1.1-0.8-2.3-1.2-3.5c-0.4-1.2-0.7-2.3-1-3.4h-0.3c-0.3,1.1-0.7,2.2-1.1,3.4c-0.4,1.2-0.8,2.4-1.2,3.4L-361.6,237.2z"/>
	<path class="st1" d="M-323.4,236.2l-12.6-23.6h7.5l6.7,12.9c0.4,0.9,0.8,1.7,1.2,2.4c0.3,0.8,0.7,1.5,0.9,2.3h0.1
		c0.3-0.8,0.6-1.6,1-2.3c0.3-0.7,0.7-1.5,1.2-2.4l6.4-13h7.1l-12.6,23.6v15.9h-6.8L-323.4,236.2L-323.4,236.2z"/>
</g>
<rect x="-1.2" y="81" width="632.5" height="150"/>
<path class="st1" d="M123,156.9c-5.9-5.9-11.7-11.8-17.5-17.7c-9-9.1-18-18.2-27-27.3c-0.6-0.6-0.9-0.4-1.3,0
	c-1.2,1.2-1.5,2.7-1.5,4.4c0,13.3,0,26.6,0,39.9c0,0,0,0,0,0c0,5.6,0,11.1,0,16.7c0,7.9,0,15.8,0,23.6c0,1.9,0.6,3.4,2.1,4.6
	c0.8,0.6,1.5,0.7,2.3-0.1c14.3-14.2,28.6-28.4,42.9-42.6C123.6,157.8,123.5,157.5,123,156.9z"/>
<path class="st1" d="M124.9,155.3c0.6,0.6,0.9,0.3,1.3-0.1c4.1-4,8.1-8.1,12.2-12.1c0.6-0.6,0.7-0.9-0.2-1.4
	c-18.3-10.2-36.6-20.4-54.9-30.6c-0.7-0.4-1.5-0.7-2.6-0.7c0.2,0.3,0.3,0.5,0.5,0.6C95.8,125.7,110.4,140.5,124.9,155.3z"/>
<path class="st1" d="M126.6,160.6c-0.7-0.8-1.1-0.9-1.9,0c-13.2,13.4-26.5,26.7-39.8,40.1c0.1-0.1,0.4-0.3,0.7-0.5
	c17-9.3,34.1-18.6,51.1-27.9c0.8-0.4,0.8-0.7,0.2-1.3C133.4,167.5,130,164.1,126.6,160.6z"/>
<path class="st1" d="M157.9,152.7c-5.1-2.8-10.2-5.7-15.3-8.6c-0.6-0.4-1-0.3-1.5,0.2c-4.3,4.3-8.6,8.6-12.9,12.8
	c-0.6,0.5-0.5,0.8,0,1.4c3.7,3.7,7.4,7.4,11.1,11.2c0.6,0.6,1,0.6,1.7,0.2c5.1-2.9,10.3-5.7,15.5-8.5c0.9-0.5,1.7-1,2.5-1.5
	c1.1-0.8,1.8-1.8,1.8-3.3C160.7,154.7,159.4,153.5,157.9,152.7z"/>
<text transform="matrix(1 0 0 1 182.2461 177.0684)" class="st1" style="font-family:'ArialMT'; font-size:57.8995px;">GOOGLE PLAY</text>
<g>
	<rect x="10.6" y="322.7" class="st3" width="626.6" height="147.8"/>
	<path class="st4" d="M635.6,324.2v144.7H12.3V324.2H635.6 M638.9,321.2h-3.3H12.3H9v3.1v144.7v3.1h3.3h623.3h3.3v-3.1V324.2V321.2
		L638.9,321.2z"/>
</g>
<g>
	<path class="st1" d="M222.2,376.8h6.6l15.9,39.9h-7.6l-3.7-9.8h-16.7l-3.8,9.8h-7.4L222.2,376.8z M218.7,401.7h12.9l-3.9-10.2
		c-0.4-1.1-0.9-2.3-1.3-3.5c-0.4-1.2-0.7-2.3-1.1-3.4h-0.3c-0.3,1.1-0.7,2.3-1.1,3.5c-0.4,1.2-0.9,2.4-1.3,3.5L218.7,401.7z"/>
	<path class="st1" d="M249.5,376.8h12.9c2.3,0,4.3,0.2,6.2,0.8c1.9,0.5,3.5,1.3,4.9,2.3c1.4,1,2.5,2.3,3.3,3.9
		c0.8,1.6,1.2,3.4,1.2,5.6c0,3.9-1.3,7.1-3.9,9.3c-2.6,2.3-6.6,3.4-12.1,3.4h-5.3v14.6h-7.2L249.5,376.8L249.5,376.8z M270.7,389.5
		c0-1-0.2-1.9-0.5-2.7c-0.3-0.8-0.8-1.6-1.4-2.2c-0.7-0.6-1.5-1.1-2.5-1.5c-1-0.3-2.3-0.5-3.8-0.5h-5.7v13.8h5.6
		c1.6,0,3-0.2,4.1-0.6c1.1-0.4,1.9-0.9,2.6-1.5c0.6-0.6,1.1-1.4,1.3-2.2C270.5,391.3,270.7,390.4,270.7,389.5z"/>
	<path class="st1" d="M283.5,376.8h12.9c2.3,0,4.3,0.2,6.2,0.8c1.9,0.5,3.6,1.3,4.9,2.3c1.4,1,2.5,2.3,3.3,3.9
		c0.8,1.6,1.2,3.4,1.2,5.6c0,3.9-1.3,7.1-3.9,9.3c-2.6,2.3-6.6,3.4-12.1,3.4h-5.3v14.6h-7.2L283.5,376.8L283.5,376.8z M304.7,389.5
		c0-1-0.2-1.9-0.5-2.7c-0.3-0.8-0.8-1.6-1.4-2.2c-0.7-0.6-1.5-1.1-2.6-1.5c-1-0.3-2.3-0.5-3.8-0.5h-5.7v13.8h5.6
		c1.6,0,3-0.2,4.1-0.6c1.1-0.4,1.9-0.9,2.6-1.5c0.6-0.6,1.1-1.4,1.3-2.2C304.5,391.3,304.7,390.4,304.7,389.5z"/>
	<path class="st1" d="M351.4,386.3c-0.2-1.5-0.8-2.7-1.8-3.6c-1-0.9-2.4-1.4-4.1-1.4c-1.7,0-3.1,0.5-4.1,1.4c-1,0.9-1.5,2.1-1.5,3.6
		c0,1.6,0.7,2.9,2,3.9c1.3,0.9,3.2,1.8,5.5,2.5c2.3,0.7,4.2,1.4,5.7,2.3c1.5,0.9,2.8,1.9,3.7,3c0.9,1.1,1.6,2.3,2.1,3.6
		c0.4,1.3,0.6,2.7,0.6,4.2c0,1.5-0.3,3-0.8,4.4c-0.6,1.5-1.4,2.8-2.6,4c-1.2,1.2-2.6,2.1-4.3,2.8c-1.7,0.7-3.8,1.1-6.1,1.1
		c-3.9,0-7.2-1-9.8-3c-2.6-2-4.2-5-4.7-9h7.4c0.3,1.9,1.1,3.4,2.3,4.6c1.2,1.2,2.8,1.7,4.9,1.7c1,0,1.9-0.2,2.8-0.5
		c0.8-0.3,1.5-0.8,2.1-1.4c0.6-0.6,1-1.2,1.3-2c0.3-0.7,0.4-1.5,0.4-2.3c0-1.9-0.6-3.4-1.9-4.6c-1.3-1.1-3.3-2.2-6.2-3
		c-4.1-1.2-7-2.9-8.7-4.9c-1.8-2-2.7-4.5-2.7-7.3c0-1.6,0.3-3,1-4.3c0.7-1.3,1.6-2.5,2.7-3.4c1.1-1,2.5-1.7,4.1-2.2
		c1.6-0.5,3.2-0.8,5.1-0.8c1.9,0,3.6,0.3,5.1,0.8c1.5,0.5,2.9,1.3,4,2.2c1.1,1,2,2.1,2.7,3.4c0.7,1.3,1.1,2.8,1.2,4.3L351.4,386.3
		L351.4,386.3L351.4,386.3z"/>
	<path class="st1" d="M373,382.9h-10.4v-6.1h28.1v6.1h-10.4v33.8H373L373,382.9L373,382.9z"/>
	<path class="st1" d="M392.1,396.8c0-2.8,0.6-5.6,1.7-8.1c1.1-2.6,2.7-4.8,4.6-6.8c2-1.9,4.3-3.5,7.1-4.6c2.7-1.2,5.7-1.7,8.9-1.7
		c3.4,0,6.5,0.6,9.2,1.8c2.7,1.2,5,2.7,6.9,4.7c1.9,2,3.4,4.2,4.4,6.8c1,2.6,1.5,5.2,1.5,8c0,2.9-0.6,5.7-1.7,8.3
		c-1.1,2.6-2.7,4.8-4.7,6.8c-2,1.9-4.3,3.5-7,4.6c-2.7,1.1-5.6,1.7-8.8,1.7c-3.8,0-7.2-0.6-9.9-1.9c-2.8-1.3-5.1-2.9-6.9-5
		c-1.8-2-3.2-4.3-4.1-6.8C392.5,401.7,392.1,399.2,392.1,396.8z M399.5,396.8c0,2.1,0.4,4.1,1.1,6c0.8,1.8,1.8,3.4,3.1,4.8
		c1.3,1.3,2.9,2.4,4.7,3.2c1.8,0.8,3.7,1.1,5.8,1.1c2.1,0,4-0.4,5.9-1.1c1.8-0.8,3.4-1.8,4.7-3.2c1.3-1.3,2.3-2.9,3.1-4.8
		c0.8-1.8,1.1-3.8,1.1-6c0-2.1-0.4-4.1-1.1-5.9c-0.7-1.8-1.7-3.4-3-4.8c-1.3-1.3-2.8-2.4-4.6-3.2c-1.8-0.8-3.8-1.2-6-1.2
		c-2.1,0-4,0.4-5.8,1.1c-1.8,0.8-3.4,1.8-4.7,3.1c-1.3,1.3-2.4,2.9-3.1,4.8C399.9,392.6,399.5,394.6,399.5,396.8z"/>
	<path class="st1" d="M474.8,416.7H466l-11.9-16.1h-4v16.1h-7.2v-39.9h12.6c2.8,0,5.2,0.3,7.1,1c1.9,0.7,3.5,1.6,4.7,2.7
		c1.2,1.1,2.1,2.4,2.6,3.8c0.5,1.4,0.8,2.9,0.8,4.4c0,1.4-0.2,2.7-0.7,3.9c-0.5,1.2-1.1,2.3-2,3.2c-0.8,0.9-1.8,1.7-2.9,2.4
		c-1.1,0.7-2.2,1.1-3.5,1.4L474.8,416.7z M463.3,389c0-2-0.6-3.6-1.9-4.7c-1.2-1.1-3-1.7-5.4-1.7h-5.9v12.6h6c2.3,0,4.1-0.6,5.3-1.8
		C462.7,392.2,463.3,390.8,463.3,389z"/>
	<path class="st1" d="M502.9,382.9H486v10.2h16.3v5.9H486v11.6h17.6v6.1h-24.9v-39.9h24.2L502.9,382.9L502.9,382.9z"/>
</g>
<g>
	<g>
		<path class="st1" d="M158.5,399.3c0-14.1,12-21.1,12.9-21.5c-6.9-9.6-18-11-21.6-11c-9.2-0.9-17.9,5.3-22.6,5.3
			c-4.6,0-12-5.3-19.3-4.8c-9.7,0-18.9,5.7-23.9,14c-10.6,17.1-2.8,42.6,7.4,56.6c5.1,7,11,14.5,18.4,14.1
			c7.4-0.4,10.1-4.4,19.3-4.4c8.8,0,11.5,4.4,19.3,4.4c7.8,0,12.9-7,18-13.6c6-7.9,8.3-15.4,8.3-15.8
			C174.1,421.6,158.9,415.9,158.5,399.3z"/>
		<path class="st1" d="M143.8,357.5c4.1-4.8,6.9-11.4,6-18c-6,0.4-12.9,4-17.5,8.3c-3.7,3.9-6.9,11-6,17.1
			C133.2,365.9,139.6,362.4,143.8,357.5z"/>
	</g>
</g>
</svg>
